<?xml version="1.0" standalone="no"?>
<!DOCTYPE svg PUBLIC "-//W3C//DTD SVG 20010904//EN"
 "http://www.w3.org/TR/2001/REC-SVG-20010904/DTD/svg10.dtd">
<svg version="1.0" xmlns="http://www.w3.org/2000/svg"
 width="512.000000pt" height="512.000000pt" viewBox="0 0 512.000000 512.000000"
 preserveAspectRatio="xMidYMid meet">
<metadata>
Created by potrace 1.16, written by Peter Selinger 2001-2019
</metadata>
<g transform="translate(0.000000,512.000000) scale(0.100000,-0.100000)"
fill="#000000" stroke="none">
<path d="M1130 2545 l0 -1425 165 0 165 0 0 1049 c0 922 -8 1350 -25 1429 -23
100 70 -139 480 -1228 l470 -1250 150 0 151 0 474 1245 c261 684 479 1245 484
1245 4 0 5 -35 2 -77 -18 -221 -26 -657 -26 -1490 l0 -923 180 0 180 0 0 1425
0 1425 -266 -2 -265 -3 -446 -1160 c-245 -638 -447 -1162 -449 -1164 -2 -2 -7
-2 -10 2 -3 3 -203 527 -443 1164 l-437 1158 -267 3 -267 2 0 -1425z"/>
</g>
</svg>
